<svg xmlns="http://www.w3.org/2000/svg" xmlns:xlink="http://www.w3.org/1999/xlink" width="500" zoomAndPan="magnify" viewBox="0 0 375 374.999991" height="500" preserveAspectRatio="xMidYMid meet" version="1.0"><defs><clipPath id="e827d47e9d"><path d="M 98 72 L 264 72 L 264 239 L 98 239 Z M 98 72 " clip-rule="nonzero"/></clipPath><clipPath id="fced6acfb4"><path d="M 64.355469 98.203125 L 183.699219 -12.101562 L 349.15625 166.910156 L 229.8125 277.214844 Z M 64.355469 98.203125 " clip-rule="nonzero"/></clipPath><clipPath id="e0bcf9bda3"><path d="M 64.355469 98.203125 L 183.699219 -12.101562 L 349.15625 166.910156 L 229.8125 277.214844 Z M 64.355469 98.203125 " clip-rule="nonzero"/></clipPath><clipPath id="925406d5a1"><path d="M 14 150 L 180 150 L 180 317 L 14 317 Z M 14 150 " clip-rule="nonzero"/></clipPath><clipPath id="81c11c19da"><path d="M -19.824219 176.007812 L 99.515625 65.703125 L 264.972656 244.71875 L 145.628906 355.019531 Z M -19.824219 176.007812 " clip-rule="nonzero"/></clipPath><clipPath id="2c428d24c4"><path d="M -19.824219 176.007812 L 99.515625 65.703125 L 264.972656 244.71875 L 145.628906 355.019531 Z M -19.824219 176.007812 " clip-rule="nonzero"/></clipPath><clipPath id="572cb5483f"><rect x="0" width="334" y="0" height="331"/></clipPath></defs><g transform="matrix(1, 0, 0, 1, 26, 17)"><g clip-path="url(#572cb5483f)"><g clip-path="url(#e827d47e9d)"><g clip-path="url(#fced6acfb4)"><g clip-path="url(#e0bcf9bda3)"><path fill="#58ffff" d="M 263.191406 78.761719 L 121.011719 72.445312 C 93.550781 71.222656 88.914062 124.71875 121.449219 125.601562 L 209.921875 127.996094 L 203.164062 217.019531 C 201.105469 244.128906 253.976562 246.992188 255.484375 219.441406 Z M 263.191406 78.761719 " fill-opacity="1" fill-rule="nonzero"/></g></g></g><g clip-path="url(#925406d5a1)"><g clip-path="url(#81c11c19da)"><g clip-path="url(#2c428d24c4)"><path fill="#58ffff" d="M 179.007812 156.570312 L 36.832031 150.25 C 9.367188 149.03125 4.730469 202.523438 37.269531 203.40625 L 125.738281 205.804688 L 118.980469 294.828125 C 116.925781 321.933594 169.792969 324.796875 171.304688 297.246094 Z M 179.007812 156.570312 " fill-opacity="1" fill-rule="nonzero"/></g></g></g></g></g></svg>