<svg xmlns="http://www.w3.org/2000/svg" xmlns:xlink="http://www.w3.org/1999/xlink" width="150" zoomAndPan="magnify" viewBox="0 0 224.87999 74.999997" height="50" preserveAspectRatio="xMidYMid meet" version="1.0"><defs><g/><clipPath id="5492746170"><path d="M 1 0.167969 L 27 0.167969 L 27 33 L 1 33 Z M 1 0.167969 " clip-rule="nonzero"/></clipPath><clipPath id="f2c17c9631"><path d="M 57 0.167969 L 79 0.167969 L 79 32 L 57 32 Z M 57 0.167969 " clip-rule="nonzero"/></clipPath><clipPath id="9e2af891fc"><rect x="0" width="128" y="0" height="40"/></clipPath><clipPath id="6dfdc49121"><path d="M 168 9 L 180 9 L 180 21 L 168 21 Z M 168 9 " clip-rule="nonzero"/></clipPath><clipPath id="f16368a80a"><path d="M 166.605469 11.472656 L 174.3125 4.351562 L 184.996094 15.910156 L 177.289062 23.03125 Z M 166.605469 11.472656 " clip-rule="nonzero"/></clipPath><clipPath id="d53668d130"><path d="M 166.605469 11.472656 L 174.3125 4.351562 L 184.996094 15.910156 L 177.289062 23.03125 Z M 166.605469 11.472656 " clip-rule="nonzero"/></clipPath><clipPath id="5794bc6a91"><path d="M 163 14 L 175 14 L 175 26 L 163 26 Z M 163 14 " clip-rule="nonzero"/></clipPath><clipPath id="4b97e09f97"><path d="M 161.167969 16.496094 L 168.875 9.375 L 179.558594 20.933594 L 171.851562 28.058594 Z M 161.167969 16.496094 " clip-rule="nonzero"/></clipPath><clipPath id="3a1b3f84dd"><path d="M 161.167969 16.496094 L 168.875 9.375 L 179.558594 20.933594 L 171.851562 28.058594 Z M 161.167969 16.496094 " clip-rule="nonzero"/></clipPath></defs><g transform="matrix(1, 0, 0, 1, 40, 20)"><g clip-path="url(#9e2af891fc)"><g clip-path="url(#5492746170)"><g fill="#ffffff" fill-opacity="1"><g transform="translate(0.289909, 31.878431)"><g><path d="M 13.84375 0.6875 C 11.664062 0.6875 9.796875 0.40625 8.234375 -0.15625 C 6.671875 -0.71875 5.394531 -1.46875 4.40625 -2.40625 C 3.414062 -3.351562 2.6875 -4.40625 2.21875 -5.5625 C 1.75 -6.726562 1.515625 -7.90625 1.515625 -9.09375 L 7.0625 -9.09375 C 7.0625 -8.15625 7.328125 -7.300781 7.859375 -6.53125 C 8.390625 -5.757812 9.160156 -5.140625 10.171875 -4.671875 C 11.179688 -4.210938 12.398438 -3.984375 13.828125 -3.984375 C 18.328125 -3.984375 20.578125 -5.492188 20.578125 -8.515625 C 20.578125 -9.453125 20.285156 -10.210938 19.703125 -10.796875 C 19.128906 -11.390625 18.320312 -11.867188 17.28125 -12.234375 C 16.238281 -12.597656 15.015625 -12.914062 13.609375 -13.1875 C 12.597656 -13.382812 11.554688 -13.632812 10.484375 -13.9375 C 9.421875 -14.238281 8.40625 -14.609375 7.4375 -15.046875 C 6.46875 -15.492188 5.59375 -16.046875 4.8125 -16.703125 C 4.039062 -17.359375 3.425781 -18.144531 2.96875 -19.0625 C 2.519531 -19.988281 2.296875 -21.082031 2.296875 -22.34375 C 2.296875 -24 2.691406 -25.476562 3.484375 -26.78125 C 4.285156 -28.09375 5.523438 -29.128906 7.203125 -29.890625 C 8.878906 -30.660156 11.023438 -31.046875 13.640625 -31.046875 C 16.171875 -31.046875 18.28125 -30.664062 19.96875 -29.90625 C 21.65625 -29.144531 22.925781 -28.082031 23.78125 -26.71875 C 24.632812 -25.351562 25.0625 -23.757812 25.0625 -21.9375 L 19.515625 -21.9375 C 19.515625 -22.726562 19.304688 -23.441406 18.890625 -24.078125 C 18.472656 -24.722656 17.828125 -25.234375 16.953125 -25.609375 C 16.085938 -25.992188 14.960938 -26.1875 13.578125 -26.1875 C 12.429688 -26.1875 11.488281 -26.078125 10.75 -25.859375 C 10.007812 -25.640625 9.425781 -25.34375 9 -24.96875 C 8.570312 -24.601562 8.269531 -24.1875 8.09375 -23.71875 C 7.925781 -23.257812 7.84375 -22.796875 7.84375 -22.328125 C 7.84375 -21.054688 8.472656 -20.085938 9.734375 -19.421875 C 11.003906 -18.753906 12.910156 -18.210938 15.453125 -17.796875 C 16.847656 -17.546875 18.1875 -17.195312 19.46875 -16.75 C 20.757812 -16.3125 21.910156 -15.738281 22.921875 -15.03125 C 23.929688 -14.332031 24.726562 -13.445312 25.3125 -12.375 C 25.90625 -11.300781 26.203125 -10.007812 26.203125 -8.5 C 26.203125 -6.53125 25.691406 -4.863281 24.671875 -3.5 C 23.648438 -2.132812 22.210938 -1.09375 20.359375 -0.375 C 18.515625 0.332031 16.34375 0.6875 13.84375 0.6875 Z M 13.84375 0.6875 "/></g></g></g></g><g fill="#ffffff" fill-opacity="1"><g transform="translate(27.8897, 31.878431)"><g><path d="M 13.46875 0.6875 C 11.9375 0.6875 10.515625 0.472656 9.203125 0.046875 C 7.898438 -0.367188 6.753906 -1.03125 5.765625 -1.9375 C 4.785156 -2.84375 4.023438 -4.015625 3.484375 -5.453125 C 2.941406 -6.898438 2.671875 -8.644531 2.671875 -10.6875 L 2.671875 -22.921875 L 8.03125 -22.921875 L 8.03125 -10.84375 C 8.03125 -8.726562 8.484375 -7.113281 9.390625 -6 C 10.296875 -4.882812 11.648438 -4.328125 13.453125 -4.328125 C 15.265625 -4.328125 16.613281 -4.882812 17.5 -6 C 18.394531 -7.125 18.84375 -8.738281 18.84375 -10.84375 L 18.84375 -22.921875 L 24.21875 -22.921875 L 24.21875 -10.6875 C 24.21875 -8.644531 23.945312 -6.898438 23.40625 -5.453125 C 22.863281 -4.015625 22.097656 -2.84375 21.109375 -1.9375 C 20.128906 -1.03125 18.988281 -0.367188 17.6875 0.046875 C 16.394531 0.472656 14.988281 0.6875 13.46875 0.6875 Z M 13.46875 0.6875 "/></g></g></g><g clip-path="url(#f2c17c9631)"><g fill="#ffffff" fill-opacity="1"><g transform="translate(54.776088, 31.878431)"><g><path d="M 24.203125 0 L 18.125 0 L 12.171875 -10.328125 L 8.5625 -6.375 L 8.5625 0 L 3.171875 0 L 3.171875 -31.40625 L 8.5625 -31.40625 L 8.5625 -12.171875 L 16.640625 -22.921875 L 23.21875 -22.921875 L 16.09375 -13.84375 Z M 24.203125 0 "/></g></g></g></g><g fill="#ffffff" fill-opacity="1"><g transform="translate(79.210151, 31.878431)"><g><path d="M 12.328125 0.6875 C 10.785156 0.6875 9.351562 0.375 8.03125 -0.25 C 6.71875 -0.875 5.570312 -1.742188 4.59375 -2.859375 C 3.625 -3.972656 2.867188 -5.265625 2.328125 -6.734375 C 1.796875 -8.203125 1.53125 -9.78125 1.53125 -11.46875 C 1.53125 -13.144531 1.800781 -14.710938 2.34375 -16.171875 C 2.894531 -17.640625 3.65625 -18.929688 4.625 -20.046875 C 5.601562 -21.160156 6.742188 -22.03125 8.046875 -22.65625 C 9.359375 -23.289062 10.78125 -23.609375 12.3125 -23.609375 C 14.1875 -23.609375 15.847656 -23.203125 17.296875 -22.390625 C 18.753906 -21.585938 19.847656 -20.472656 20.578125 -19.046875 L 20.578125 -22.921875 L 25.71875 -22.921875 L 25.71875 0 L 20.578125 0 L 20.578125 -3.859375 C 19.835938 -2.429688 18.742188 -1.316406 17.296875 -0.515625 C 15.847656 0.285156 14.191406 0.6875 12.328125 0.6875 Z M 13.625 -4.296875 C 14.5625 -4.296875 15.4375 -4.476562 16.25 -4.84375 C 17.070312 -5.207031 17.789062 -5.710938 18.40625 -6.359375 C 19.019531 -7.015625 19.5 -7.773438 19.84375 -8.640625 C 20.1875 -9.515625 20.359375 -10.457031 20.359375 -11.46875 C 20.359375 -12.457031 20.179688 -13.382812 19.828125 -14.25 C 19.484375 -15.125 19.003906 -15.890625 18.390625 -16.546875 C 17.785156 -17.203125 17.070312 -17.710938 16.25 -18.078125 C 15.4375 -18.441406 14.5625 -18.625 13.625 -18.625 C 12.394531 -18.625 11.269531 -18.328125 10.25 -17.734375 C 9.226562 -17.140625 8.410156 -16.304688 7.796875 -15.234375 C 7.191406 -14.160156 6.890625 -12.90625 6.890625 -11.46875 C 6.890625 -9.976562 7.195312 -8.695312 7.8125 -7.625 C 8.425781 -6.550781 9.242188 -5.726562 10.265625 -5.15625 C 11.296875 -4.582031 12.414062 -4.296875 13.625 -4.296875 Z M 13.625 -4.296875 "/></g></g></g><g fill="#ffffff" fill-opacity="1"><g transform="translate(108.080691, 31.878431)"><g><path d="M 17.265625 0 L 12.59375 0 C 11.914062 0 11.210938 -0.0625 10.484375 -0.1875 C 9.765625 -0.3125 9.078125 -0.546875 8.421875 -0.890625 C 7.773438 -1.234375 7.191406 -1.726562 6.671875 -2.375 C 6.160156 -3.019531 5.753906 -3.859375 5.453125 -4.890625 C 5.148438 -5.921875 5 -7.195312 5 -8.71875 L 5 -18.28125 L 0.25 -18.28125 L 0.25 -22.921875 L 5 -22.921875 L 5 -29.640625 L 10.390625 -29.6875 L 10.390625 -22.921875 L 17.265625 -22.921875 L 17.265625 -18.28125 L 10.390625 -18.28125 L 10.390625 -8.46875 C 10.390625 -7.40625 10.546875 -6.582031 10.859375 -6 C 11.171875 -5.414062 11.582031 -5.015625 12.09375 -4.796875 C 12.613281 -4.585938 13.15625 -4.484375 13.71875 -4.484375 L 17.265625 -4.484375 Z M 17.265625 0 "/></g></g></g></g></g><g clip-path="url(#6dfdc49121)"><g clip-path="url(#f16368a80a)"><g clip-path="url(#d53668d130)"><path fill="#58ffff" d="M 179.445312 10.21875 L 170.261719 9.808594 C 168.488281 9.730469 168.191406 13.183594 170.292969 13.242188 L 176.003906 13.398438 L 175.570312 19.144531 C 175.4375 20.894531 178.851562 21.082031 178.945312 19.300781 Z M 179.445312 10.21875 " fill-opacity="1" fill-rule="nonzero"/></g></g></g><g clip-path="url(#5794bc6a91)"><g clip-path="url(#4b97e09f97)"><g clip-path="url(#3a1b3f84dd)"><path fill="#58ffff" d="M 174.007812 15.242188 L 164.828125 14.835938 C 163.054688 14.753906 162.753906 18.210938 164.855469 18.265625 L 170.570312 18.421875 L 170.132812 24.171875 C 170 25.921875 173.414062 26.105469 173.511719 24.328125 Z M 174.007812 15.242188 " fill-opacity="1" fill-rule="nonzero"/></g></g></g></svg>